<svg viewBox="0 0 19.9468 16.2117" xmlns="http://www.w3.org/2000/svg" xmlns:xlink="http://www.w3.org/1999/xlink" width="19.946777" height="16.211670" fill="none" customFrame="#000000">
	<path id="twitter" d="M19.9467 1.92029C19.2136 2.24609 18.4241 2.4655 17.5963 2.56524C18.4424 2.05826 19.089 1.25707 19.3965 0.301289C18.6053 0.770036 17.7293 1.11079 16.7968 1.29364C16.0521 0.497432 14.9866 0.000427246 13.8114 0.000427246C11.1685 0.000427246 9.227 2.4655 9.82373 5.02533C6.42449 4.85412 3.40756 3.22514 1.38962 0.750089C0.317484 2.58851 0.834436 4.99541 2.65623 6.21381C1.98636 6.19221 1.35637 6.0077 0.804516 5.70185C0.759636 7.59678 2.11933 9.37037 4.0874 9.76598C3.51228 9.92223 2.88063 9.9588 2.23901 9.8358C2.75929 11.4614 4.27357 12.6433 6.06212 12.6765C4.3384 14.0263 2.17252 14.6296 0 14.3737C1.81182 15.5356 3.96108 16.2121 6.27156 16.2121C13.8712 16.2121 18.1631 9.79424 17.9038 4.03797C18.705 3.46284 19.3981 2.74143 19.9467 1.92029Z" fill="rgb(20,20,20)" fill-rule="evenodd" />
</svg>
