<svg viewBox="0 0 210.172 210.172" xmlns="http://www.w3.org/2000/svg" xmlns:xlink="http://www.w3.org/1999/xlink" width="210.171875" height="210.171875" fill="none">
	<rect id="Layer_1" width="158.000000" height="158.000000" x="0.000000" y="0.000000" fill="rgb(255,255,255)" fill-opacity="0" transform="matrix(0.905186,-0.425015,0.425015,0.905186,0,67.1523)" />
	<path id="Vector" d="M79 158C122.63 158 158 122.63 158 79C158 35.3695 122.63 0 79 0C35.3695 0 0 35.3695 0 79C0 122.63 35.3695 158 79 158Z" fill="rgb(244,117,33)" fill-rule="evenodd" transform="matrix(0.905186,-0.425015,0.425015,0.905186,-0.000488281,67.1528)" />
	<g id="Group">
		<path id="Vector" d="M19.8419 0.00816511C19.0413 0.00816511 18.4449 0.424815 18.0446 1.26628L0.136859 43.4868C-0.181756 44.3201 0.0551637 44.7449 0.855784 44.7449L13.3144 44.7449C14.1886 44.7449 14.7849 44.3282 15.1117 43.4868L20.6671 30.4072L20.6834 30.3664L25.2094 19.4028L25.1767 19.4028L28.0524 12.5158L33.2237 0L19.8501 0L19.8419 0.00816511Z" fill="rgb(255,255,255)" fill-rule="nonzero" transform="matrix(0.905186,-0.425015,0.425015,0.905186,68.8975,96.9966)" />
		<path id="Vector" d="M35.4887 4.61582C35.4887 5.97198 35.1129 7.54871 34.3531 9.34602L29.1981 21.5024C28.4384 23.2997 27.6786 24.762 26.927 25.9058C26.1672 27.0414 25.3012 27.94 24.3209 28.6018C23.3487 29.2635 22.1968 29.721 20.8733 29.9824C19.558 30.2439 17.9649 30.3746 16.0859 30.3746L0 30.3746L4.52596 19.411L7.37714 12.524L11.8623 1.65843C12.2789 0.653567 13.2511 0 14.3376 0L28.6671 0C33.2176 0 35.4969 1.53589 35.4969 4.61582L35.4887 4.61582Z" fill="rgb(255,255,255)" fill-rule="evenodd" transform="matrix(0.905186,-0.425015,0.425015,0.905186,89.2644,87.4419)" />
	</g>
	<g id="Group">
		<path id="Vector" d="M5.55532 0L9.63195 2.6878C10.5061 3.26784 11.0208 3.93775 11.1678 4.71386C11.3149 5.48997 11.127 6.27425 10.5878 7.09121C10.0568 7.9 9.38686 8.39018 8.59441 8.56174C7.80196 8.7333 6.96866 8.52906 6.11086 7.96536L3.43123 6.20072L1.36432 9.32968L0 8.43102L5.54715 0.00816978L5.55532 0ZM6.82978 6.75626C7.26277 7.04219 7.69575 7.13206 8.12057 7.03402C8.54539 6.93599 8.91303 6.65005 9.2153 6.18438C9.52575 5.71872 9.64012 5.27756 9.56659 4.86908C9.49306 4.4606 9.23164 4.10114 8.77414 3.79886L6.14353 2.06691L4.19099 5.0243L6.82161 6.75626L6.82978 6.75626Z" fill="rgb(255,255,255)" fill-rule="nonzero" transform="matrix(0.905186,-0.425015,0.425015,0.905186,105.541,42.5439)" />
		<path id="Vector" d="M0.00132464 5.66293C-0.0313537 4.42115 0.540519 3.1712 1.72511 1.92125C2.9097 0.671306 4.12696 0.0259093 5.36874 0.0014005C6.61052 -0.0312779 7.81963 0.507915 8.98788 1.61898C10.1643 2.73005 10.7689 3.91464 10.8015 5.15642C10.8342 6.3982 10.2623 7.64814 9.07775 8.89809C7.89316 10.148 6.67588 10.7934 5.4341 10.8179C4.19232 10.8506 2.98322 10.3033 1.8068 9.1922C0.638546 8.0893 0.0421726 6.91288 0.00132464 5.6711L0.00132464 5.66293ZM7.79511 7.81154L7.91765 7.68082C9.63327 5.85083 9.68229 4.15973 8.04021 2.61567C6.41445 1.07162 4.73151 1.20233 2.99139 3.01598L2.86885 3.14669C1.15323 4.95218 1.12056 6.63511 2.75448 8.18734C4.39656 9.74773 6.0795 9.62519 7.78695 7.81154L7.79511 7.81154Z" fill="rgb(255,255,255)" fill-rule="nonzero" transform="matrix(0.905186,-0.425015,0.425015,0.905186,116.757,45.561)" />
		<path id="Vector" d="M6.73174 0L7.70392 1.42151L3.11261 6.82161C2.94922 7.01768 2.59793 7.39349 2.06691 7.94902L2.10776 8.0062L3.50475 7.38532L10.0078 4.77921L11.2414 6.57653L6.49483 11.7479C6.29876 11.9685 5.9393 12.3279 5.42461 12.8426L5.46546 12.8998C6.16805 12.6057 6.64188 12.4178 6.89514 12.3279L13.5615 9.95874L14.452 11.2577L4.52595 14.6317L3.36587 12.9488L8.12058 7.72027C8.39018 7.43433 8.75781 7.05036 9.23981 6.57653L9.19896 6.51934C8.53722 6.83795 8.05522 7.05853 7.74477 7.18108L1.16008 9.7545L0 8.07156L6.70723 0.0245078L6.73174 0Z" fill="rgb(255,255,255)" fill-rule="nonzero" transform="matrix(0.905186,-0.425015,0.425015,0.905186,126.029,48.4292)" />
		<path id="Vector" d="M9.2725 0L12.3443 7.19742L11.0616 7.74478L8.62709 2.05057L6.02099 3.1698L8.20227 8.26763L6.91965 8.81499L4.73837 3.71717L1.92803 4.9181L4.39525 10.694L3.11261 11.2414L0 3.97042L9.2725 0.00816823L9.2725 0Z" fill="rgb(255,255,255)" fill-rule="nonzero" transform="matrix(0.905186,-0.425015,0.425015,0.905186,137.131,57.9644)" />
		<path id="Vector" d="M9.81986 0L11.0371 5.13867C11.274 6.15987 11.2087 7.00134 10.8165 7.65491C10.4244 8.30848 9.78717 8.74147 8.90486 8.95388C8.22678 9.11727 7.61406 9.10093 7.0667 8.90486C6.51933 8.70879 6.06183 8.35749 5.71054 7.83464L2.05874 10.9963L1.65026 9.26432L5.106 6.31509L4.31355 2.9819L0.375794 3.91323L0 2.32833L9.81986 0.00816511L9.81986 0ZM6.47848 6.11086C6.60103 6.61737 6.83795 6.97684 7.19741 7.20558C7.55688 7.42616 7.99803 7.47518 8.51272 7.35264C9.00289 7.23826 9.34601 7.00951 9.54208 6.67456C9.73815 6.33961 9.779 5.89845 9.65646 5.36742L8.8395 1.91985L5.66152 2.67146L6.47848 6.11903L6.47848 6.11086Z" fill="rgb(255,255,255)" fill-rule="nonzero" transform="matrix(0.905186,-0.425015,0.425015,0.905186,144.466,65.4766)" />
		<path id="Vector" d="M10.0813 0L10.1957 7.20558L8.79866 7.23009L8.70879 1.65843L5.7269 1.70744L5.80858 6.73992L4.41159 6.76443L4.32989 1.74012L0.0245078 1.80548L0 0.171561L10.0895 0.00816511L10.0813 0Z" fill="rgb(255,255,255)" fill-rule="nonzero" transform="matrix(0.905186,-0.425015,0.425015,0.905186,153.241,78.5317)" />
		<path id="Vector" d="M11.3803 1.61758L10.5388 6.82978C10.3672 7.86732 9.98325 8.61075 9.37053 9.06825C8.75781 9.52575 8.0062 9.68097 7.10755 9.53392C6.4213 9.41954 5.8576 9.17446 5.42461 8.78232C4.99162 8.39018 4.71386 7.89183 4.58314 7.27094L0 8.79049L0.285941 7.03402L4.60765 5.63702L5.15501 2.25481L1.16008 1.60941L1.42151 0L11.3803 1.61758ZM5.94747 5.98014C5.86577 6.49483 5.94747 6.91965 6.19256 7.26277C6.43764 7.60589 6.82162 7.81831 7.34447 7.90817C7.83465 7.98987 8.24312 7.90817 8.56173 7.67125C8.88035 7.43433 9.07642 7.04219 9.16629 6.503L9.72999 3.00641L6.51117 2.48356L5.94747 5.98014Z" fill="rgb(255,255,255)" fill-rule="nonzero" transform="matrix(0.905186,-0.425015,0.425015,0.905186,155.479,86.6235)" />
		<path id="Vector" d="M2.92589 0.380699C4.05329 -0.150325 5.42578 -0.125819 7.04336 0.454222C8.66911 1.04243 9.73933 1.89207 10.2704 3.01947C10.8014 4.14688 10.785 5.47036 10.2458 6.98173C9.69847 8.50128 8.86518 9.53065 7.73778 10.0617C6.61037 10.5927 5.23788 10.5682 3.61213 9.98815C1.98638 9.4081 0.916165 8.55029 0.385141 7.42289C-0.137713 6.29548 -0.129549 4.97201 0.417814 3.4443C0.965177 1.93292 1.79849 0.911721 2.91772 0.372527L2.92589 0.380699ZM4.08597 8.37873L4.24936 8.43592C6.61037 9.27739 8.17894 8.64016 8.93871 6.51607C9.69848 4.40014 8.89785 2.91327 6.54501 2.05546L6.38162 1.99828C4.03695 1.15681 2.48473 1.79404 1.72495 3.91814C0.957012 6.0504 1.74946 7.53727 4.08597 8.37873Z" fill="rgb(255,255,255)" fill-rule="nonzero" transform="matrix(0.905186,-0.425015,0.425015,0.905186,157.759,97.0371)" />
		<path id="Vector" d="M13.8393 5.22037L12.5648 7.31995L5.93112 5.78408C5.52264 5.68604 4.94261 5.51448 4.19917 5.26939L4.16649 5.3184C4.77921 5.89844 5.20403 6.32327 5.43278 6.60104L9.87704 11.7479L8.62709 13.8148L0 8.59442L0.841467 7.19741L6.47848 10.6041L7.99803 11.5927L8.05521 11.5028C7.72843 11.1923 7.47517 10.9309 7.29544 10.7349L2.26297 4.85274L2.99824 3.63547L10.5306 5.39193C10.6858 5.42461 10.9309 5.49814 11.2822 5.60434L11.5681 5.69421L11.609 5.62885L10.0404 4.73019L4.40341 1.32347L5.20403 0L13.8393 5.22037Z" fill="rgb(255,255,255)" fill-rule="nonzero" transform="matrix(0.905186,-0.425015,0.425015,0.905186,155.532,108.016)" />
		<path id="Vector" d="M14.787 5.52266L13.5207 6.68274L7.53237 2.89204C7.31996 2.75316 6.89515 2.46722 6.27426 2.01789L6.21706 2.06691L7.02586 3.3577L10.5143 9.43589L8.91303 10.9064L3.12896 6.92783C2.88387 6.76443 2.47539 6.46216 1.89535 6.021L1.83816 6.07002C2.22213 6.72358 2.48356 7.1729 2.6061 7.40165L5.88212 13.6759L4.72203 14.738L0 5.38377L1.50322 4.00311L7.34447 7.9817C7.67126 8.20228 8.09608 8.52089 8.63527 8.93754L8.69245 8.88853C8.28397 8.28397 7.99805 7.83465 7.83465 7.54055L4.36257 1.38066L5.86578 0L14.7706 5.52266L14.787 5.52266Z" fill="rgb(255,255,255)" fill-rule="nonzero" transform="matrix(0.905186,-0.425015,0.425015,0.905186,152.074,124.793)" />
		<path id="Vector" d="M6.99317 8.36566L5.63702 9.28066L0 0.914991L1.35616 0L6.99317 8.36566Z" fill="rgb(255,255,255)" fill-rule="nonzero" transform="matrix(0.905186,-0.425015,0.425015,0.905186,151.383,133.222)" />
		<path id="Vector" d="M5.48996 7.67942L8.45553 6.11902L9.1091 7.36898L1.72378 11.2495L1.07022 9.99958L4.03578 8.4392L0 0.759767L1.44602 0L5.4818 7.67942L5.48996 7.67942Z" fill="rgb(255,255,255)" fill-rule="nonzero" transform="matrix(0.905186,-0.425015,0.425015,0.905186,148.021,138.267)" />
		<path id="Vector" d="M11.1597 9.56659L9.60745 10.0813L8.28397 6.07818L3.39855 7.69576L4.72203 11.707L3.1698 12.2217L0 2.64694L1.55222 2.13227L2.94922 6.36411L7.83464 4.74653L6.43764 0.514689L7.98986 0L11.1597 9.57477L11.1597 9.56659Z" fill="rgb(255,255,255)" fill-rule="nonzero" transform="matrix(0.905186,-0.425015,0.425015,0.905186,138.699,145.478)" />
		<path id="Vector" d="M3.56194 9.89338L1.9607 10.212L0 0.318614L1.60124 0L3.56194 9.89338Z" fill="rgb(255,255,255)" fill-rule="nonzero" transform="matrix(0.905186,-0.425015,0.425015,0.905186,136.923,149.479)" />
		<path id="Vector" d="M9.12544 10.0486L7.63041 10.1548L2.27932 3.97042C2.15677 3.83154 2.00155 3.62729 1.80548 3.37403L1.73196 3.40672L1.79732 4.14198L2.27115 10.5469L0.735265 10.6613L0 0.604542L1.47053 0.498346L6.83795 6.75625C6.91965 6.84611 7.01768 6.96049 7.11572 7.0912C7.21375 7.22192 7.28728 7.31178 7.32813 7.36897L7.40166 7.35264L7.3363 6.6092L6.86246 0.114374L8.39834 0L9.13361 10.0649L9.12544 10.0486Z" fill="rgb(255,255,255)" fill-rule="nonzero" transform="matrix(0.905186,-0.425015,0.425015,0.905186,128.135,154.445)" />
		<path id="Vector" d="M5.70612 9.34602L1.60498 6.69907C0.722665 6.12719 0.207982 5.45728 0.0527596 4.68934C-0.102463 3.9214 0.0854383 3.12079 0.608292 2.312C1.13115 1.49504 1.79288 1.00486 2.5935 0.825125C3.38596 0.653563 4.21925 0.841469 5.08523 1.40517L7.77303 3.14529L9.80726 0L11.1798 0.882318L5.70612 9.35419L5.70612 9.34602ZM4.37448 2.6061C3.94149 2.32834 3.5085 2.23847 3.08368 2.34467C2.65886 2.45088 2.2994 2.73681 1.99712 3.20248C1.69485 3.66815 1.58047 4.10931 1.654 4.51779C1.72753 4.92627 1.99712 5.27756 2.45462 5.57984L5.10157 7.28728L7.0296 4.31355L4.38265 2.6061L4.37448 2.6061Z" fill="rgb(255,255,255)" fill-rule="nonzero" transform="matrix(0.905186,-0.425015,0.425015,0.905186,91.0281,163.998)" />
		<path id="Vector" d="M10.795 5.10819C10.844 6.34997 10.2803 7.60808 9.10387 8.86619C7.92745 10.1243 6.71835 10.7779 5.47657 10.8187C4.23479 10.8596 3.02569 10.3286 1.84927 9.23384C0.66468 8.13094 0.0519586 6.95451 0.00294106 5.71273C-0.0460765 4.47095 0.517625 3.22101 1.69405 1.95472C2.87047 0.688434 4.07957 0.0430363 5.32135 0.00218829C6.56313 -0.0386597 7.7804 0.492362 8.96499 1.59526C10.1414 2.68998 10.7541 3.85824 10.8031 5.10819L10.795 5.10819ZM2.98485 3.02494L2.8623 3.15565C1.15485 4.99381 1.13035 6.68491 2.78061 8.22897C4.42269 9.75668 6.10563 9.60963 7.82125 7.77964L7.94379 7.64893C9.64307 5.82711 9.66758 4.15235 8.01732 2.60829C6.35889 1.06424 4.68412 1.20312 2.98485 3.02494Z" fill="rgb(255,255,255)" fill-rule="nonzero" transform="matrix(0.905186,-0.425015,0.425015,0.905186,79.533,159.564)" />
		<path id="Vector" d="M7.81013 14.6481L6.82161 13.2347L11.3639 7.7938C11.5273 7.59773 11.8704 7.22193 12.4014 6.65823L12.3606 6.60104L10.9718 7.2301L4.49328 9.89338L3.24333 8.11242L7.94902 2.90021C8.14509 2.67963 8.49638 2.31199 9.01107 1.79731L8.97022 1.74013C8.26763 2.0424 7.7938 2.2303 7.54871 2.32016L0.898656 4.74653L0 3.45574L9.89338 0L11.0616 1.67477L6.34778 6.94416C6.08635 7.23826 5.71055 7.62224 5.23671 8.09607L5.27756 8.15325C5.93113 7.82647 6.41314 7.6059 6.72358 7.48335L13.2838 4.85274L14.452 6.52751L7.81013 14.6318L7.81013 14.6481Z" fill="rgb(255,255,255)" fill-rule="nonzero" transform="matrix(0.905186,-0.425015,0.425015,0.905186,65.2676,154.893)" />
		<path id="Vector" d="M3.13713 11.2986L0 4.13381L1.28263 3.57012L3.76618 9.23981L6.36412 8.10424L4.14199 3.02275L5.42461 2.45905L7.64674 7.54053L10.4489 6.3151L7.93268 0.563704L9.21531 0L12.3851 7.24643L3.14529 11.2904L3.13713 11.2986Z" fill="rgb(255,255,255)" fill-rule="nonzero" transform="matrix(0.905186,-0.425015,0.425015,0.905186,57.4258,147.591)" />
		<path id="Vector" d="M1.40678 11.0698L0.148664 5.93929C-0.104593 4.91809 -0.0310673 4.08479 0.344734 3.42306C0.728705 2.76132 1.36593 2.32833 2.24825 2.10775C2.92633 1.94436 3.53905 1.95253 4.08641 2.14043C4.63377 2.32833 5.09127 2.67962 5.45073 3.19431L9.06986 0L9.49468 1.73195L6.06345 4.71385L6.88041 8.03888L10.81 7.07487L11.2021 8.65977L1.40678 11.0698ZM4.69913 4.93444C4.57659 4.42792 4.3315 4.06846 3.97204 3.84788C3.61257 3.6273 3.17141 3.57828 2.65673 3.709C2.17472 3.83154 1.8316 4.06029 1.62736 4.40341C1.42312 4.74654 1.39044 5.17952 1.52933 5.71872L2.37896 9.15812L5.54877 8.382L4.69913 4.9426L4.69913 4.93444Z" fill="rgb(255,255,255)" fill-rule="nonzero" transform="matrix(0.905186,-0.425015,0.425015,0.905186,51.2085,139.851)" />
		<path id="Vector" d="M0.114375 7.2301L0 0.024514L1.397 0L1.48687 5.57167L4.46877 5.52265L4.38707 0.490181L5.78407 0.465673L5.86577 5.49814L10.1711 5.42462L10.1957 7.05854L0.106206 7.22193L0.114375 7.2301Z" fill="rgb(255,255,255)" fill-rule="nonzero" transform="matrix(0.905186,-0.425015,0.425015,0.905186,44.8445,129.888)" />
		<path id="Vector" d="M0 8.00171L0.80062 2.78134C0.955842 1.7438 1.33981 0.9922 1.95253 0.534702C2.55708 0.0690354 3.31686 -0.0861858 4.21551 0.0445278C4.90176 0.150733 5.46546 0.395822 5.90662 0.779793C6.34778 1.16376 6.62554 1.66211 6.76443 2.283L11.3312 0.722606L11.0616 2.47906L6.74809 3.91691L6.2334 7.3073L10.2283 7.92002L9.98325 9.52943L0.00816978 8.00171L0 8.00171ZM5.39193 3.59013C5.47363 3.07545 5.39193 2.65063 5.13051 2.3075C4.87725 1.96438 4.49328 1.75197 3.97042 1.67845C3.48025 1.60492 3.07177 1.67844 2.76132 1.92353C2.45088 2.16862 2.24664 2.55259 2.16494 3.09996L1.62575 6.60471L4.85274 7.10306L5.39193 3.5983L5.39193 3.59013Z" fill="rgb(255,255,255)" fill-rule="nonzero" transform="matrix(0.905186,-0.425015,0.425015,0.905186,40.4878,120.206)" />
		<path id="Vector" d="M7.77337 10.0447C6.65414 10.5839 5.28165 10.5757 3.64773 10.0039C2.01381 9.432 0.935419 8.58237 0.404395 7.46313C-0.134798 6.33573 -0.134798 5.02042 0.404395 3.50088C0.943588 1.97316 1.76872 0.94379 2.88795 0.396427C4.00719 -0.142766 5.37968 -0.134594 7.0136 0.437278C8.63935 1.00915 9.72591 1.85062 10.2569 2.97802C10.788 4.10543 10.7961 5.4289 10.2569 6.94844C9.72591 8.46799 8.90078 9.49736 7.78154 10.0366L7.77337 10.0447ZM6.54793 2.05485L6.38454 1.99767C4.01536 1.18071 2.45496 1.82611 1.71153 3.95837C0.968098 6.0743 1.77689 7.553 4.14607 8.39446L4.30946 8.45165C6.66231 9.27678 8.20636 8.62321 8.94979 6.49095C9.7014 4.35051 8.90078 2.87181 6.54793 2.04668L6.54793 2.05485Z" fill="rgb(255,255,255)" fill-rule="nonzero" transform="matrix(0.905186,-0.425015,0.425015,0.905186,38.3733,108.715)" />
		<path id="Vector" d="M0.0163396 8.64343L1.26629 6.52751L7.90817 8.0062C8.31665 8.10424 8.89669 8.26763 9.64829 8.50455L9.68097 8.45553C9.06008 7.88366 8.63526 7.45884 8.39835 7.18108L3.90507 2.07508L5.13868 0L13.8148 5.14684L12.9815 6.55202L7.31179 3.19431L5.78407 2.22213L5.73506 2.31199C6.06184 2.62244 6.3151 2.8757 6.49483 3.07177L11.5763 8.91303L10.8492 10.1385L3.30052 8.44736C3.1453 8.41468 2.90021 8.34933 2.54891 8.24312L2.25481 8.15326L2.21396 8.21861L3.79069 9.10093L9.46039 12.4586L8.67611 13.7903L0 8.64343L0.0163396 8.64343Z" fill="rgb(255,255,255)" fill-rule="nonzero" transform="matrix(0.905186,-0.425015,0.425015,0.905186,36.1914,96.0625)" />
		<path id="Vector" d="M0 9.297L1.25812 8.12058L7.27911 11.8623C7.49969 11.993 7.91634 12.2871 8.5454 12.7282L8.60258 12.6792L7.78562 11.3884L4.24002 5.34292L5.83309 3.85605L11.6498 7.78563C11.8949 7.94902 12.3034 8.24312 12.8835 8.68428L12.9406 8.63526C12.5485 7.9817 12.2871 7.54054 12.1645 7.31179L8.83134 1.07022L9.98325 0L14.787 9.31334L13.2919 10.7103L7.41799 6.78076C7.09121 6.56019 6.65822 6.24974 6.11903 5.84126L6.06184 5.89028C6.47849 6.49483 6.76443 6.94416 6.92782 7.23009L10.4489 13.3573L8.95388 14.7543L0 9.31334L0 9.297Z" fill="rgb(255,255,255)" fill-rule="nonzero" transform="matrix(0.905186,-0.425015,0.425015,0.905186,38.2622,78.79)" />
		<path id="Vector" d="M0 0.923165L1.34798 0L7.05853 8.31665L5.71055 9.23981L0 0.923165Z" fill="rgb(255,255,255)" fill-rule="nonzero" transform="matrix(0.905186,-0.425015,0.425015,0.905186,48.2283,72.0083)" />
		<path id="Vector" d="M3.6273 3.59462L0.669907 5.17952L0 3.93775L7.34447 0L8.01438 1.24178L5.05698 2.82668L9.15811 10.4734L7.72027 11.2414L3.61913 3.59462L3.6273 3.59462Z" fill="rgb(255,255,255)" fill-rule="nonzero" transform="matrix(0.905186,-0.425015,0.425015,0.905186,48.7739,66.021)" />
		<path id="Vector" d="M0 2.70414L1.54405 2.18128L2.9002 6.17621L7.76928 4.51779L6.41313 0.522854L7.95719 0L11.2087 9.55026L9.66463 10.0731L8.22678 5.8576L3.35771 7.51603L4.79555 11.7315L3.2515 12.2544L0 2.70414Z" fill="rgb(255,255,255)" fill-rule="nonzero" transform="matrix(0.905186,-0.425015,0.425015,0.905186,55.7842,58.731)" />
		<path id="Vector" d="M0 0.334953L1.60125 0L3.64365 9.87704L2.0424 10.212L0 0.334953Z" fill="rgb(255,255,255)" fill-rule="nonzero" transform="matrix(0.905186,-0.425015,0.425015,0.905186,65.2529,53.2744)" />
		<path id="Vector" d="M0 0.678076L1.49503 0.555533L6.89514 6.69907C7.01768 6.83795 7.1729 7.03402 7.36897 7.29545L7.4425 7.26277L7.36897 6.52751L6.84612 0.122544L8.382 0L9.19896 10.0568L7.73661 10.1793L2.32016 3.97042C2.2303 3.88056 2.14043 3.76618 2.0424 3.63547C1.94436 3.50476 1.87084 3.41489 1.82999 3.3577L1.75646 3.38221L1.82999 4.12565L2.36101 10.6205L0.825125 10.743L0.00816511 0.686246L0 0.678076Z" fill="rgb(255,255,255)" fill-rule="nonzero" transform="matrix(0.905186,-0.425015,0.425015,0.905186,68.7607,50.1924)" />
	</g>
</svg>
