<svg viewBox="0 0 71.5122 65.1504" xmlns="http://www.w3.org/2000/svg" xmlns:xlink="http://www.w3.org/1999/xlink" width="71.512207" height="65.150391" fill="none" customFrame="#000000">
	<g id="Group">
		<path id="Vector" d="M19.8419 0.00816511C19.0413 0.00816511 18.4449 0.424815 18.0446 1.26628L0.136859 43.4868C-0.181756 44.3201 0.0551637 44.7449 0.855784 44.7449L13.3144 44.7449C14.1886 44.7449 14.7849 44.3282 15.1117 43.4868L20.6671 30.4072L20.6834 30.3664L25.2094 19.4028L25.1767 19.4028L28.0524 12.5158L33.2237 0L19.8501 0L19.8419 0.00816511Z" fill="rgb(255,255,255)" fill-rule="nonzero" transform="matrix(0.905186,-0.425015,0.425015,0.905186,0,24.6479)" />
		<path id="Vector" d="M35.4887 4.61582C35.4887 5.97198 35.1129 7.54871 34.3531 9.34602L29.1981 21.5024C28.4384 23.2997 27.6786 24.762 26.927 25.9058C26.1672 27.0414 25.3012 27.94 24.3209 28.6018C23.3487 29.2635 22.1968 29.721 20.8733 29.9824C19.558 30.2439 17.9649 30.3746 16.0859 30.3746L0 30.3746L4.52596 19.411L7.37714 12.524L11.8623 1.65843C12.2789 0.653567 13.2511 0 14.3376 0L28.6671 0C33.2176 0 35.4969 1.53589 35.4969 4.61582L35.4887 4.61582Z" fill="rgb(255,255,255)" fill-rule="evenodd" transform="matrix(0.905186,-0.425015,0.425015,0.905186,20.3669,15.0933)" />
	</g>
</svg>
